<?xml version="1.0" standalone="no"?>
<!--
  - This file is part of HKBusETA.
  -
  - Copyright (C) 2025. LoohpJames <jamesloohp@gmail.com>
  - Copyright (C) 2025. Contributors
  -
  - This program is free software: you can redistribute it and/or modify
  - it under the terms of the GNU General Public License as published by
  - the Free Software Foundation, either version 3 of the License, or
  - (at your option) any later version.
  -
  - This program is distributed in the hope that it will be useful,
  - but WITHOUT ANY WARRANTY; without even the implied warranty of
  - MERCHANTABILITY or FITNESS FOR A PARTICULAR PURPOSE.  See the
  - GNU General Public License for more details.
  -
  - You should have received a copy of the GNU General Public License
  - along with this program. If not, see <https://www.gnu.org/licenses/>.
  -->

<!DOCTYPE svg PUBLIC "-//W3C//DTD SVG 20010904//EN"
 "http://www.w3.org/TR/2001/REC-SVG-20010904/DTD/svg10.dtd">
<svg version="1.0" xmlns="http://www.w3.org/2000/svg"
 width="512.000000pt" height="512.000000pt" viewBox="0 0 512.000000 512.000000"
 preserveAspectRatio="xMidYMid meet">
<metadata>
Created by potrace 1.14, written by Peter Selinger 2001-2017
</metadata>
<g transform="translate(0.000000,512.000000) scale(0.100000,-0.100000)"
fill="#000000" stroke="none">
<path d="M297 5100 c-138 -44 -240 -149 -281 -289 -14 -49 -16 -278 -16 -2255
l1 -2201 22 -66 c44 -128 146 -229 274 -269 56 -18 140 -19 2265 -19 2168 -1
2207 -1 2270 19 86 27 160 79 213 151 82 112 75 -118 73 2409 l-3 2255 -30 55
c-57 104 -152 181 -264 214 -49 14 -278 16 -2260 15 -2121 0 -2208 -1 -2264
-19z"/>
</g>
</svg>
