<?xml version="1.0" encoding="UTF-8"?>
<!--Generator: Apple Native CoreSVG 232.5-->
<!DOCTYPE svg
PUBLIC "-//W3C//DTD SVG 1.1//EN"
       "http://www.w3.org/Graphics/SVG/1.1/DTD/svg11.dtd">
<svg version="1.1" xmlns="http://www.w3.org/2000/svg" xmlns:xlink="http://www.w3.org/1999/xlink" width="3300" height="2200">
 <!--glyph: "uni100176.medium", point size: 100.0, font version: "19.2d2e1", template writer version: "128"-->
 <style>.SFSymbolsPreviewWireframe {fill:none;opacity:1.0;stroke:black;stroke-width:0.5}
</style>
 <g id="Notes">
  <rect height="2200" id="artboard" style="fill:white;opacity:1" width="3300" x="0" y="0"/>
  <line style="fill:none;stroke:black;opacity:1;stroke-width:0.5;" x1="263" x2="3036" y1="292" y2="292"/>
  <text style="stroke:none;fill:black;font-family:sans-serif;font-size:13;font-weight:bold;" transform="matrix(1 0 0 1 263 322)">Weight/Scale Variations</text>
  <text style="stroke:none;fill:black;font-family:sans-serif;font-size:13;text-anchor:middle;" transform="matrix(1 0 0 1 559.711 322)">Ultralight</text>
  <text style="stroke:none;fill:black;font-family:sans-serif;font-size:13;text-anchor:middle;" transform="matrix(1 0 0 1 856.422 322)">Thin</text>
  <text style="stroke:none;fill:black;font-family:sans-serif;font-size:13;text-anchor:middle;" transform="matrix(1 0 0 1 1153.13 322)">Light</text>
  <text style="stroke:none;fill:black;font-family:sans-serif;font-size:13;text-anchor:middle;" transform="matrix(1 0 0 1 1449.84 322)">Regular</text>
  <text style="stroke:none;fill:black;font-family:sans-serif;font-size:13;text-anchor:middle;" transform="matrix(1 0 0 1 1746.56 322)">Medium</text>
  <text style="stroke:none;fill:black;font-family:sans-serif;font-size:13;text-anchor:middle;" transform="matrix(1 0 0 1 2043.27 322)">Semibold</text>
  <text style="stroke:none;fill:black;font-family:sans-serif;font-size:13;text-anchor:middle;" transform="matrix(1 0 0 1 2339.98 322)">Bold</text>
  <text style="stroke:none;fill:black;font-family:sans-serif;font-size:13;text-anchor:middle;" transform="matrix(1 0 0 1 2636.69 322)">Heavy</text>
  <text style="stroke:none;fill:black;font-family:sans-serif;font-size:13;text-anchor:middle;" transform="matrix(1 0 0 1 2933.4 322)">Black</text>
  <line style="fill:none;stroke:black;opacity:1;stroke-width:0.5;" x1="263" x2="3036" y1="1903" y2="1903"/>
  <g transform="matrix(0.2 0 0 0.2 263 1933)">
   <path d="m46.2402 4.15039c21.5332 0 39.4531-17.8711 39.4531-39.4043s-17.9688-39.4043-39.502-39.4043c-21.4844 0-39.3555 17.8711-39.3555 39.4043s17.9199 39.4043 39.4043 39.4043Zm0-7.42188c-17.7246 0-31.8848-14.209-31.8848-31.9824s14.1113-31.9824 31.8359-31.9824c17.7734 0 32.0312 14.209 32.0312 31.9824s-14.209 31.9824-31.9824 31.9824Zm-17.9688-31.9824c0 2.14844 1.51367 3.61328 3.75977 3.61328h10.498v10.5957c0 2.19727 1.46484 3.71094 3.61328 3.71094 2.24609 0 3.71094-1.51367 3.71094-3.71094v-10.5957h10.5957c2.19727 0 3.71094-1.46484 3.71094-3.61328 0-2.19727-1.51367-3.71094-3.71094-3.71094h-10.5957v-10.5469c0-2.24609-1.46484-3.75977-3.71094-3.75977-2.14844 0-3.61328 1.51367-3.61328 3.75977v10.5469h-10.498c-2.24609 0-3.75977 1.51367-3.75977 3.71094Z"/>
  </g>
  <g transform="matrix(0.2 0 0 0.2 281.506 1933)">
   <path d="m58.5449 14.5508c27.2461 0 49.8047-22.6074 49.8047-49.8047 0-27.2461-22.6074-49.8047-49.8535-49.8047-27.1973 0-49.7559 22.5586-49.7559 49.8047 0 27.1973 22.6074 49.8047 49.8047 49.8047Zm0-8.30078c-23.0469 0-41.4551-18.457-41.4551-41.5039s18.3594-41.5039 41.4062-41.5039 41.5527 18.457 41.5527 41.5039-18.457 41.5039-41.5039 41.5039Zm-22.6562-41.5039c0 2.39258 1.66016 4.00391 4.15039 4.00391h14.3555v14.4043c0 2.44141 1.66016 4.15039 4.05273 4.15039 2.44141 0 4.15039-1.66016 4.15039-4.15039v-14.4043h14.4043c2.44141 0 4.15039-1.61133 4.15039-4.00391 0-2.44141-1.70898-4.15039-4.15039-4.15039h-14.4043v-14.3555c0-2.49023-1.70898-4.19922-4.15039-4.19922-2.39258 0-4.05273 1.70898-4.05273 4.19922v14.3555h-14.3555c-2.49023 0-4.15039 1.70898-4.15039 4.15039Z"/>
  </g>
  <g transform="matrix(0.2 0 0 0.2 304.924 1933)">
   <path d="m74.8535 28.3203c34.8145 0 63.623-28.8086 63.623-63.5742 0-34.8145-28.8574-63.623-63.6719-63.623-34.7656 0-63.5254 28.8086-63.5254 63.623 0 34.7656 28.8086 63.5742 63.5742 63.5742Zm0-9.08203c-30.1758 0-54.4434-24.3164-54.4434-54.4922 0-30.2246 24.2188-54.4922 54.3945-54.4922 30.2246 0 54.541 24.2676 54.541 54.4922 0 30.1758-24.2676 54.4922-54.4922 54.4922Zm-28.8574-54.4922c0 2.58789 1.85547 4.39453 4.58984 4.39453h19.7266v19.7754c0 2.68555 1.85547 4.58984 4.44336 4.58984 2.68555 0 4.54102-1.85547 4.54102-4.58984v-19.7754h19.7754c2.68555 0 4.58984-1.80664 4.58984-4.39453 0-2.73438-1.85547-4.58984-4.58984-4.58984h-19.7754v-19.7266c0-2.73438-1.85547-4.63867-4.54102-4.63867-2.58789 0-4.44336 1.9043-4.44336 4.63867v19.7266h-19.7266c-2.73438 0-4.58984 1.85547-4.58984 4.58984Z"/>
  </g>
  <text style="stroke:none;fill:black;font-family:sans-serif;font-size:13;font-weight:bold;" transform="matrix(1 0 0 1 263 1953)">Design Variations</text>
  <text style="stroke:none;fill:black;font-family:sans-serif;font-size:13;" transform="matrix(1 0 0 1 263 1971)">Symbols are supported in up to nine weights and three scales.</text>
  <text style="stroke:none;fill:black;font-family:sans-serif;font-size:13;" transform="matrix(1 0 0 1 263 1989)">For optimal layout with text and other symbols, vertically align</text>
  <text style="stroke:none;fill:black;font-family:sans-serif;font-size:13;" transform="matrix(1 0 0 1 263 2007)">symbols with the adjacent text.</text>
  <line style="fill:none;stroke:#00AEEF;stroke-width:0.5;opacity:1.0;" x1="776" x2="776" y1="1919" y2="1933"/>
  <g transform="matrix(0.2 0 0 0.2 776 1933)">
   <path d="m16.5527 0.78125c2.58789 0 3.85742-0.976562 4.78516-3.71094l6.29883-17.2363h28.8086l6.29883 17.2363c0.927734 2.73438 2.19727 3.71094 4.73633 3.71094 2.58789 0 4.24805-1.5625 4.24805-4.00391 0-0.830078-0.146484-1.61133-0.537109-2.63672l-22.9004-60.9863c-1.12305-2.97852-3.125-4.49219-6.25-4.49219-3.02734 0-5.07812 1.46484-6.15234 4.44336l-22.9004 61.084c-0.390625 1.02539-0.537109 1.80664-0.537109 2.63672 0 2.44141 1.5625 3.95508 4.10156 3.95508Zm13.4766-28.3691 11.8652-32.8613h0.244141l11.8652 32.8613Z"/>
  </g>
  <line style="fill:none;stroke:#00AEEF;stroke-width:0.5;opacity:1.0;" x1="792.836" x2="792.836" y1="1919" y2="1933"/>
  <text style="stroke:none;fill:black;font-family:sans-serif;font-size:13;font-weight:bold;" transform="matrix(1 0 0 1 776 1953)">Margins</text>
  <text style="stroke:none;fill:black;font-family:sans-serif;font-size:13;" transform="matrix(1 0 0 1 776 1971)">Leading and trailing margins on the left and right side of each symbol</text>
  <text style="stroke:none;fill:black;font-family:sans-serif;font-size:13;" transform="matrix(1 0 0 1 776 1989)">can be adjusted by modifying the x-location of the margin guidelines.</text>
  <text style="stroke:none;fill:black;font-family:sans-serif;font-size:13;" transform="matrix(1 0 0 1 776 2007)">Modifications are automatically applied proportionally to all</text>
  <text style="stroke:none;fill:black;font-family:sans-serif;font-size:13;" transform="matrix(1 0 0 1 776 2025)">scales and weights.</text>
  <g transform="matrix(0.2 0 0 0.2 1289 1933)">
   <path d="m14.209 9.32617 8.49609 8.54492c4.29688 4.3457 9.22852 4.05273 13.8672-1.07422l53.4668-58.9355-4.83398-4.88281-53.0762 58.3984c-1.75781 2.00195-3.41797 2.49023-5.76172 0.146484l-5.85938-5.81055c-2.34375-2.29492-1.80664-4.00391 0.195312-5.81055l57.373-54.0039-4.88281-4.83398-57.959 54.4434c-4.93164 4.58984-5.32227 9.47266-1.02539 13.8184Zm32.0801-90.9668c-2.09961 2.05078-2.24609 4.93164-1.07422 6.88477 1.17188 1.80664 3.4668 2.97852 6.68945 2.14844 7.32422-1.70898 14.9414-2.00195 22.0703 2.68555l-2.92969 7.27539c-1.70898 4.15039-0.830078 7.08008 1.85547 9.81445l11.4746 11.5723c2.44141 2.44141 4.49219 2.53906 7.32422 2.05078l5.32227-0.976562 3.32031 3.36914-0.195312 2.7832c-0.195312 2.49023 0.439453 4.39453 2.88086 6.78711l3.80859 3.71094c2.39258 2.39258 5.46875 2.53906 7.8125 0.195312l14.5508-14.5996c2.34375-2.34375 2.24609-5.32227-0.146484-7.71484l-3.85742-3.80859c-2.39258-2.39258-4.24805-3.17383-6.64062-2.97852l-2.88086 0.244141-3.22266-3.17383 1.2207-5.61523c0.634766-2.83203-0.146484-5.0293-3.07617-7.95898l-10.9863-10.9375c-16.6992-16.6016-38.8672-16.2109-53.3203-1.75781Zm7.4707 1.85547c12.1582-8.88672 28.6133-7.37305 39.7461 3.75977l12.1582 12.0605c1.17188 1.17188 1.36719 2.09961 1.02539 3.80859l-1.61133 7.42188 7.51953 7.42188 4.93164-0.292969c1.26953-0.0488281 1.66016 0.0488281 2.63672 1.02539l2.88086 2.88086-12.207 12.207-2.88086-2.88086c-0.976562-0.976562-1.12305-1.36719-1.07422-2.68555l0.341797-4.88281-7.4707-7.42188-7.61719 1.26953c-1.61133 0.341797-2.34375 0.195312-3.56445-0.976562l-10.0098-10.0098c-1.26953-1.17188-1.41602-2.00195-0.634766-3.85742l4.39453-10.4492c-7.8125-7.27539-17.9688-10.4004-28.125-7.42188-0.78125 0.195312-1.07422-0.439453-0.439453-0.976562Z"/>
  </g>
  <text style="stroke:none;fill:black;font-family:sans-serif;font-size:13;font-weight:bold;" transform="matrix(1 0 0 1 1289 1953)">Exporting</text>
  <text style="stroke:none;fill:black;font-family:sans-serif;font-size:13;" transform="matrix(1 0 0 1 1289 1971)">Symbols should be outlined when exporting to ensure the</text>
  <text style="stroke:none;fill:black;font-family:sans-serif;font-size:13;" transform="matrix(1 0 0 1 1289 1989)">design is preserved when submitting to Xcode.</text>
  <text id="template-version" style="stroke:none;fill:black;font-family:sans-serif;font-size:13;text-anchor:end;" transform="matrix(1 0 0 1 3036 1933)">Template v.5.0</text>
  <text style="stroke:none;fill:black;font-family:sans-serif;font-size:13;text-anchor:end;" transform="matrix(1 0 0 1 3036 1951)">Requires Xcode 15 or greater</text>
  <text id="descriptive-name" style="stroke:none;fill:black;font-family:sans-serif;font-size:13;text-anchor:end;" transform="matrix(1 0 0 1 3036 1969)">Generated from character.textbox</text>
  <text style="stroke:none;fill:black;font-family:sans-serif;font-size:13;text-anchor:end;" transform="matrix(1 0 0 1 3036 1987)">Typeset at 100.0 points</text>
  <text style="stroke:none;fill:black;font-family:sans-serif;font-size:13;" transform="matrix(1 0 0 1 263 726)">Small</text>
  <text style="stroke:none;fill:black;font-family:sans-serif;font-size:13;" transform="matrix(1 0 0 1 263 1156)">Medium</text>
  <text style="stroke:none;fill:black;font-family:sans-serif;font-size:13;" transform="matrix(1 0 0 1 263 1586)">Large</text>
 </g>
 <g id="Guides">
  <g id="H-reference" style="fill:#27AAE1;stroke:none;" transform="matrix(1 0 0 1 339 696)">
   <path d="M0.993654 0L3.63775 0L29.3281-67.1323L30.0303-67.1323L30.0303-70.459L28.1226-70.459ZM11.6885-24.4799L46.9815-24.4799L46.2315-26.7285L12.4385-26.7285ZM55.1196 0L57.7637 0L30.6382-70.459L29.4326-70.459L29.4326-67.1323Z"/>
  </g>
  <line id="Baseline-S" style="fill:none;stroke:#27AAE1;opacity:1;stroke-width:0.5;" x1="263" x2="3036" y1="696" y2="696"/>
  <line id="Capline-S" style="fill:none;stroke:#27AAE1;opacity:1;stroke-width:0.5;" x1="263" x2="3036" y1="625.541" y2="625.541"/>
  <g id="H-reference" style="fill:#27AAE1;stroke:none;" transform="matrix(1 0 0 1 339 1126)">
   <path d="M0.993654 0L3.63775 0L29.3281-67.1323L30.0303-67.1323L30.0303-70.459L28.1226-70.459ZM11.6885-24.4799L46.9815-24.4799L46.2315-26.7285L12.4385-26.7285ZM55.1196 0L57.7637 0L30.6382-70.459L29.4326-70.459L29.4326-67.1323Z"/>
  </g>
  <line id="Baseline-M" style="fill:none;stroke:#27AAE1;opacity:1;stroke-width:0.5;" x1="263" x2="3036" y1="1126" y2="1126"/>
  <line id="Capline-M" style="fill:none;stroke:#27AAE1;opacity:1;stroke-width:0.5;" x1="263" x2="3036" y1="1055.54" y2="1055.54"/>
  <g id="H-reference" style="fill:#27AAE1;stroke:none;" transform="matrix(1 0 0 1 339 1556)">
   <path d="M0.993654 0L3.63775 0L29.3281-67.1323L30.0303-67.1323L30.0303-70.459L28.1226-70.459ZM11.6885-24.4799L46.9815-24.4799L46.2315-26.7285L12.4385-26.7285ZM55.1196 0L57.7637 0L30.6382-70.459L29.4326-70.459L29.4326-67.1323Z"/>
  </g>
  <line id="Baseline-L" style="fill:none;stroke:#27AAE1;opacity:1;stroke-width:0.5;" x1="263" x2="3036" y1="1556" y2="1556"/>
  <line id="Capline-L" style="fill:none;stroke:#27AAE1;opacity:1;stroke-width:0.5;" x1="263" x2="3036" y1="1485.54" y2="1485.54"/>
  <line id="left-margin-Ultralight-S" style="fill:none;stroke:#00AEEF;stroke-width:0.5;opacity:1.0;" x1="502.859" x2="502.859" y1="600.785" y2="720.121"/>
  <line id="right-margin-Ultralight-S" style="fill:none;stroke:#00AEEF;stroke-width:0.5;opacity:1.0;" x1="616.563" x2="616.563" y1="600.785" y2="720.121"/>
  <line id="left-margin-Regular-S" style="fill:none;stroke:#00AEEF;stroke-width:0.5;opacity:1.0;" x1="1393.11" x2="1393.11" y1="600.785" y2="720.121"/>
  <line id="right-margin-Regular-S" style="fill:none;stroke:#00AEEF;stroke-width:0.5;opacity:1.0;" x1="1506.58" x2="1506.58" y1="600.785" y2="720.121"/>
  <line id="left-margin-Black-S" style="fill:none;stroke:#00AEEF;stroke-width:0.5;opacity:1.0;" x1="2876.42" x2="2876.42" y1="600.785" y2="720.121"/>
  <line id="right-margin-Black-S" style="fill:none;stroke:#00AEEF;stroke-width:0.5;opacity:1.0;" x1="2990.38" x2="2990.38" y1="600.785" y2="720.121"/>
 </g>
 <g id="Symbols">
  <g id="Black-S" transform="matrix(1 0 0 1 2876.42 696)">
   <path class="SFSymbolsPreviewWireframe" d="M25.9277 2.92969L88.0371 2.92969C97.6074 2.92969 103.271-2.73438 103.271-12.3047L103.271-15.1855C103.271-19.3359 100.293-22.3633 96.1914-22.3633C92.0898-22.3633 89.1113-19.3359 89.1113-15.1855L89.1113-14.5508C89.1113-12.1094 88.0371-11.2305 85.791-11.2305L28.1738-11.2305C25.9277-11.2305 24.8535-12.1094 24.8535-14.5508L24.8535-15.1855C24.8535-19.3359 21.875-22.3633 17.7734-22.3633C13.6719-22.3633 10.6934-19.3359 10.6934-15.1855L10.6934-12.3047C10.6934-2.73438 16.3574 2.92969 25.9277 2.92969ZM25.9277-73.3398C16.3574-73.3398 10.6934-67.6758 10.6934-58.1055L10.6934-55.2246C10.6934-51.0742 13.6719-48.0469 17.7734-48.0469C21.875-48.0469 24.8535-51.0742 24.8535-55.2246L24.8535-55.8594C24.8535-58.3008 25.9277-59.1797 28.1738-59.1797L85.791-59.1797C88.0371-59.1797 89.1113-58.3008 89.1113-55.8594L89.1113-55.2246C89.1113-51.0742 92.0898-48.0469 96.1914-48.0469C100.293-48.0469 103.271-51.0742 103.271-55.2246L103.271-58.1055C103.271-67.6758 97.6074-73.3398 88.0371-73.3398ZM17.7734-27.2461C22.168-27.2461 25.7812-30.8594 25.7812-35.2539C25.7812-39.6484 22.168-43.2617 17.7734-43.2617C13.3789-43.2617 9.76562-39.6484 9.76562-35.2539C9.76562-30.8594 13.3789-27.2461 17.7734-27.2461ZM96.1914-27.2461C100.586-27.2461 104.199-30.8594 104.199-35.2539C104.199-39.6484 100.586-43.2617 96.1914-43.2617C91.7969-43.2617 88.1836-39.6484 88.1836-35.2539C88.1836-30.8594 91.7969-27.2461 96.1914-27.2461ZM46.7285-17.7734C50.0488-17.7734 52.0508-19.6777 52.7832-23.4863L52.9785-24.5117L60.9863-24.5117L61.1816-23.4863C61.9141-19.6777 63.916-17.7734 67.2363-17.7734C71.0938-17.7734 73.291-19.9219 73.291-23.6328C73.291-24.5605 73.0469-25.9277 72.4609-27.7832L67.2852-44.2383C65.5273-49.9023 62.1582-52.5391 56.8359-52.5391C51.6602-52.5391 48.4863-49.9512 46.6797-44.2383L41.5039-27.7832C40.918-25.9277 40.6738-24.5605 40.6738-23.6328C40.6738-19.9219 42.8711-17.7734 46.7285-17.7734ZM54.8828-33.252L56.7871-42.2852L57.1777-42.2852L59.082-33.252Z"/>
  </g>
  <g id="Regular-S" transform="matrix(1 0 0 1 1393.11 696)">
   <path class="SFSymbolsPreviewWireframe" d="M23.877 0.390625L89.5996 0.390625C97.9492 0.390625 102.051-3.71094 102.051-11.9141L102.051-22.6562C102.051-24.9512 100.781-26.2207 98.5352-26.2207C96.2402-26.2207 95.0195-24.9512 95.0195-22.6562L95.0195-12.2559C95.0195-8.54492 93.0176-6.68945 89.502-6.68945L23.9746-6.68945C20.459-6.68945 18.5059-8.54492 18.5059-12.2559L18.5059-22.6562C18.5059-24.9512 17.2363-26.2207 14.9902-26.2207C12.6953-26.2207 11.4258-24.9512 11.4258-22.6562L11.4258-11.9141C11.4258-3.71094 15.625 0.390625 23.877 0.390625ZM23.877-70.8008C15.625-70.8008 11.4258-66.6992 11.4258-58.4961L11.4258-50C11.4258-47.7051 12.6953-46.4355 14.9902-46.4355C17.2363-46.4355 18.5059-47.7051 18.5059-50L18.5059-58.1543C18.5059-61.8164 20.459-63.7207 23.9746-63.7207L89.502-63.7207C93.0176-63.7207 95.0195-61.8164 95.0195-58.1543L95.0195-50C95.0195-47.7051 96.2891-46.4355 98.5352-46.4355C100.83-46.4355 102.051-47.7051 102.051-50L102.051-58.4961C102.051-66.6992 97.9492-70.8008 89.5996-70.8008ZM14.9902-31.1035C17.8711-31.1035 20.166-33.4961 20.166-36.377C20.166-39.209 17.8711-41.5527 14.9902-41.5527C12.1094-41.5527 9.76562-39.209 9.76562-36.377C9.76562-33.4961 12.1094-31.1035 14.9902-31.1035ZM98.5352-31.1035C101.367-31.1035 103.711-33.4961 103.711-36.377C103.711-39.209 101.367-41.5527 98.5352-41.5527C95.6543-41.5527 93.3105-39.2578 93.3105-36.377C93.3105-33.4961 95.6543-31.1035 98.5352-31.1035ZM44.1406-17.1875C45.7031-17.1875 46.8262-17.9199 47.4609-19.9219L50.0488-27.5879L63.4277-27.5879L65.9668-19.9219C66.6504-17.9199 67.7734-17.1875 69.3359-17.1875C71.2402-17.1875 72.5098-18.4082 72.5098-20.166C72.5098-20.8496 72.3633-21.4844 72.0703-22.4121L61.6211-50.7324C60.791-52.9785 59.082-54.1504 56.6895-54.1504C54.3457-54.1504 52.6855-52.9785 51.8555-50.7324L41.4062-22.4121C41.0645-21.4844 40.918-20.8496 40.918-20.166C40.918-18.4082 42.1875-17.1875 44.1406-17.1875ZM51.7578-32.7637L56.4941-46.9238L56.9824-46.9238L61.7188-32.7637Z"/>
  </g>
  <g id="Ultralight-S" transform="matrix(1 0 0 1 502.859 696)">
   <path class="SFSymbolsPreviewWireframe" d="M22.6055-1.562L91.1435-1.562C97.6768-1.562 101.143-5.11864 101.143-11.5508L101.143-25.1084C101.143-25.7231 100.69-26.2207 100.034-26.2207C99.4189-26.2207 98.9248-25.7231 98.9248-25.1084L98.9248-11.6655C98.9248-6.45607 96.0146-3.78323 91.0459-3.78323L22.7031-3.78323C17.5528-3.78323 14.8277-6.45607 14.8277-11.6655L14.8277-25.1084C14.8277-25.7231 14.3755-26.2207 13.7188-26.2207C13.104-26.2207 12.6518-25.7231 12.6518-25.1084L12.6518-11.5508C12.6518-5.02782 16.0791-1.562 22.6055-1.562ZM22.6055-68.7573C16.0791-68.7573 12.6518-65.2915 12.6518-58.7686L12.6518-45.3228C12.6518-44.708 13.104-44.2105 13.7188-44.2105C14.3755-44.2105 14.8277-44.708 14.8277-45.3228L14.8277-58.6538C14.8277-63.8598 17.5528-66.5361 22.7031-66.5361L91.0459-66.5361C96.0146-66.5361 98.9248-63.8598 98.9248-58.6538L98.9248-45.3228C98.9248-44.708 99.3769-44.2105 100.034-44.2105C100.694-44.2105 101.143-44.708 101.143-45.3228L101.143-58.7686C101.143-65.2007 97.6768-68.7573 91.1435-68.7573ZM13.7188-31.4668C15.8731-31.4668 17.6685-33.2236 17.6685-35.4233C17.6685-37.5742 15.8731-39.3277 13.7188-39.3277C11.5645-39.3277 9.76562-37.5742 9.76562-35.4233C9.76562-33.2236 11.5645-31.4668 13.7188-31.4668ZM100.034-31.4668C102.139-31.4668 103.938-33.2236 103.938-35.4233C103.938-37.5742 102.139-39.3277 100.034-39.3277C97.834-39.3277 96.0351-37.5776 96.0351-35.4233C96.0351-33.2236 97.834-31.4668 100.034-31.4668ZM44.3677-17.5962C44.9766-17.5962 45.2822-17.8291 45.5083-18.5596L49.3677-28.814L64.3813-28.814L68.1919-18.5596C68.4668-17.8745 68.7725-17.5962 69.4268-17.5962C70.0596-17.5962 70.5117-18.0449 70.5117-18.5767C70.5117-18.8516 70.4561-18.9868 70.3447-19.3242L58.397-50.8232C58.1118-51.5708 57.6289-51.9253 56.8711-51.9253C56.1167-51.9253 55.6372-51.5708 55.352-50.8232L43.3589-19.3242C43.2441-18.9868 43.1885-18.8516 43.1885-18.6221C43.1885-17.9995 43.6406-17.5962 44.3677-17.5962ZM50.1685-30.9019L56.7666-48.5586L56.937-48.5586L63.5806-30.9019Z"/>
  </g>
 </g>
</svg>
