<svg id="svg" version="1.1" xmlns="http://www.w3.org/2000/svg" xmlns:xlink="http://www.w3.org/1999/xlink" width="400" height="400" viewBox="0, 0, 400,400"><g id="svgg"><path id="path0" d="M394.800 0.456 C 394.800 0.631,394.548 0.678,394.240 0.560 C 393.933 0.442,393.560 0.541,393.413 0.779 C 393.265 1.018,392.977 1.109,392.772 0.983 C 392.568 0.856,392.400 0.963,392.400 1.219 C 392.400 1.476,392.130 1.582,391.800 1.455 C 391.470 1.329,391.200 1.369,391.200 1.546 C 391.200 1.722,390.975 1.886,390.700 1.910 C 390.425 1.934,389.930 2.031,389.600 2.126 C 389.270 2.220,388.415 2.433,387.700 2.599 C 386.985 2.765,386.400 3.068,386.400 3.274 C 386.400 3.479,386.220 3.536,386.000 3.400 C 385.780 3.264,385.600 3.298,385.600 3.476 C 385.600 3.654,385.126 3.827,384.547 3.861 C 383.969 3.894,383.359 4.143,383.192 4.412 C 383.026 4.682,382.689 4.779,382.445 4.628 C 382.200 4.476,382.000 4.554,382.000 4.800 C 382.000 5.046,381.832 5.144,381.628 5.017 C 381.423 4.891,381.149 4.958,381.020 5.168 C 380.890 5.378,380.473 5.536,380.092 5.520 C 379.711 5.504,378.860 5.723,378.200 6.007 C 377.540 6.290,376.646 6.590,376.213 6.672 C 375.781 6.754,375.000 7.101,374.479 7.443 C 373.957 7.784,373.433 7.966,373.313 7.846 C 373.193 7.726,372.713 7.840,372.247 8.099 C 371.781 8.358,371.244 8.525,371.053 8.469 C 370.863 8.414,370.284 8.646,369.767 8.985 C 369.250 9.324,368.416 9.677,367.913 9.771 C 367.411 9.864,366.910 9.975,366.800 10.018 C 366.690 10.060,366.465 10.073,366.300 10.047 C 366.135 10.021,366.000 10.199,366.000 10.443 C 366.000 10.686,365.736 10.784,365.413 10.660 C 365.090 10.536,364.717 10.610,364.585 10.824 C 364.453 11.038,364.177 11.109,363.972 10.983 C 363.768 10.856,363.600 10.958,363.600 11.210 C 363.600 11.461,363.375 11.589,363.100 11.495 C 362.671 11.347,359.516 12.248,357.600 13.064 C 357.270 13.205,356.648 13.388,356.217 13.470 C 355.787 13.553,355.327 13.795,355.194 14.009 C 355.062 14.223,354.358 14.467,353.630 14.552 C 352.901 14.637,352.177 14.913,352.021 15.167 C 351.864 15.420,351.459 15.521,351.120 15.391 C 350.781 15.260,350.211 15.446,349.855 15.802 C 349.498 16.159,349.037 16.347,348.831 16.219 C 348.624 16.091,348.340 16.173,348.200 16.400 C 348.060 16.627,347.777 16.709,347.572 16.583 C 347.368 16.456,347.200 16.563,347.200 16.819 C 347.200 17.076,346.930 17.182,346.600 17.055 C 346.270 16.929,346.000 16.960,346.000 17.125 C 346.000 17.290,345.505 17.466,344.900 17.516 C 344.295 17.566,343.740 17.786,343.666 18.006 C 343.592 18.225,343.367 18.303,343.166 18.179 C 342.965 18.055,342.800 18.154,342.800 18.400 C 342.800 18.646,342.609 18.729,342.375 18.584 C 342.141 18.440,341.608 18.631,341.190 19.009 C 340.772 19.388,340.174 19.599,339.861 19.479 C 339.548 19.359,338.900 19.535,338.420 19.871 C 337.941 20.207,337.447 20.380,337.323 20.257 C 337.200 20.133,336.583 20.298,335.953 20.624 C 335.324 20.950,334.716 21.213,334.604 21.208 C 333.764 21.175,333.576 21.238,333.737 21.500 C 333.838 21.665,333.362 21.821,332.678 21.847 C 331.995 21.872,331.371 22.087,331.292 22.324 C 331.213 22.561,330.890 22.656,330.574 22.535 C 330.258 22.414,330.000 22.508,330.000 22.745 C 330.000 22.981,329.730 23.071,329.400 22.945 C 329.070 22.818,328.800 22.933,328.800 23.200 C 328.800 23.467,328.530 23.582,328.200 23.455 C 327.870 23.329,327.600 23.410,327.600 23.636 C 327.600 23.862,327.432 23.944,327.228 23.817 C 327.023 23.691,326.740 23.773,326.600 24.000 C 326.460 24.227,326.198 24.322,326.018 24.211 C 325.838 24.100,325.484 24.258,325.231 24.563 C 324.978 24.868,324.417 25.025,323.985 24.912 C 323.553 24.799,323.200 24.869,323.200 25.068 C 323.200 25.267,322.874 25.454,322.476 25.484 C 321.339 25.570,315.062 27.653,314.439 28.151 C 314.130 28.398,313.545 28.544,313.139 28.475 C 312.732 28.406,312.400 28.552,312.400 28.798 C 312.400 29.045,312.220 29.136,312.000 29.000 C 311.780 28.864,311.600 28.927,311.600 29.139 C 311.600 29.351,311.240 29.431,310.800 29.316 C 310.335 29.194,310.000 29.304,310.000 29.577 C 310.000 29.836,309.820 29.936,309.600 29.800 C 309.380 29.664,309.200 29.763,309.200 30.019 C 309.200 30.276,308.936 30.384,308.613 30.260 C 308.290 30.136,307.917 30.210,307.785 30.424 C 307.653 30.638,307.390 30.717,307.200 30.600 C 307.010 30.483,306.740 30.573,306.600 30.800 C 306.460 31.027,306.198 31.122,306.018 31.011 C 305.838 30.900,305.477 31.066,305.216 31.381 C 304.955 31.695,304.467 31.847,304.130 31.718 C 303.794 31.589,303.372 31.722,303.192 32.014 C 303.011 32.305,302.274 32.572,301.554 32.605 C 300.834 32.639,300.178 32.866,300.096 33.111 C 300.015 33.355,299.708 33.463,299.415 33.350 C 299.121 33.238,298.760 33.341,298.613 33.579 C 298.465 33.818,298.177 33.909,297.972 33.783 C 297.768 33.656,297.600 33.754,297.600 34.000 C 297.600 34.246,297.393 34.319,297.139 34.162 C 296.886 34.006,296.436 34.210,296.139 34.615 C 295.802 35.077,295.600 35.156,295.600 34.827 C 295.600 34.433,295.466 34.413,295.063 34.748 C 294.768 34.993,294.408 35.075,294.263 34.930 C 294.118 34.785,294.000 34.847,294.000 35.067 C 294.000 35.287,293.775 35.486,293.500 35.510 C 293.225 35.534,292.640 35.640,292.200 35.746 C 291.760 35.852,291.254 35.953,291.076 35.969 C 290.898 35.986,290.848 36.154,290.964 36.342 C 291.081 36.530,290.731 36.599,290.188 36.496 C 289.590 36.381,289.200 36.493,289.200 36.777 C 289.200 37.036,289.020 37.136,288.800 37.000 C 288.580 36.864,288.400 36.938,288.400 37.164 C 288.400 37.390,288.130 37.471,287.800 37.345 C 287.470 37.218,287.200 37.324,287.200 37.581 C 287.200 37.837,287.032 37.944,286.828 37.817 C 286.623 37.691,286.335 37.782,286.187 38.021 C 286.040 38.259,285.658 38.354,285.339 38.232 C 285.020 38.109,284.852 38.160,284.965 38.344 C 285.079 38.528,284.611 38.695,283.925 38.714 C 283.239 38.734,282.550 38.957,282.394 39.209 C 282.238 39.462,281.993 39.639,281.849 39.604 C 281.283 39.465,279.200 40.082,279.200 40.389 C 279.200 40.568,278.921 40.822,278.579 40.953 C 278.227 41.088,278.063 41.022,278.200 40.800 C 278.337 40.578,278.173 40.512,277.821 40.647 C 277.479 40.778,277.200 41.067,277.200 41.289 C 277.200 41.512,276.837 41.598,276.393 41.482 C 275.949 41.366,275.341 41.516,275.042 41.815 C 274.742 42.115,274.071 42.422,273.549 42.498 C 273.027 42.574,272.191 42.861,271.692 43.137 C 271.192 43.412,270.639 43.548,270.463 43.439 C 270.287 43.330,269.661 43.491,269.071 43.797 C 268.482 44.102,268.000 44.251,268.000 44.127 C 268.000 44.003,267.758 44.103,267.463 44.348 C 267.168 44.593,266.808 44.675,266.663 44.530 C 266.518 44.385,266.400 44.454,266.400 44.683 C 266.400 44.913,265.995 45.105,265.500 45.110 C 265.005 45.116,264.060 45.346,263.400 45.621 C 262.740 45.897,261.871 46.186,261.470 46.263 C 261.068 46.341,260.348 46.619,259.870 46.883 C 259.391 47.146,258.648 47.419,258.217 47.491 C 257.787 47.562,257.323 47.802,257.185 48.024 C 257.048 48.246,256.659 48.321,256.320 48.191 C 255.981 48.060,255.411 48.246,255.055 48.602 C 254.698 48.959,254.237 49.147,254.031 49.019 C 253.824 48.891,253.540 48.973,253.400 49.200 C 253.260 49.427,252.977 49.509,252.772 49.383 C 252.568 49.256,252.400 49.363,252.400 49.619 C 252.400 49.876,252.136 49.984,251.813 49.860 C 251.490 49.736,251.117 49.810,250.985 50.024 C 250.853 50.238,250.590 50.317,250.400 50.200 C 250.210 50.083,249.940 50.173,249.800 50.400 C 249.660 50.627,249.377 50.709,249.172 50.583 C 248.968 50.456,248.800 50.504,248.800 50.689 C 248.800 50.874,248.325 51.065,247.744 51.113 C 247.163 51.161,246.469 51.499,246.202 51.865 C 245.919 52.252,245.446 52.426,245.069 52.282 C 244.714 52.146,244.152 52.305,243.821 52.637 C 243.489 52.968,242.989 53.209,242.709 53.172 C 241.731 53.043,241.154 53.203,241.365 53.544 C 241.482 53.733,241.133 53.839,240.589 53.779 C 240.045 53.719,239.600 53.845,239.600 54.059 C 239.600 54.272,239.463 54.363,239.296 54.259 C 239.129 54.156,238.364 54.354,237.596 54.698 C 236.828 55.043,236.044 55.290,235.853 55.247 C 235.663 55.204,235.062 55.460,234.519 55.816 C 233.975 56.173,233.426 56.359,233.297 56.231 C 233.169 56.102,232.639 56.275,232.121 56.615 C 231.602 56.955,231.002 57.125,230.789 56.993 C 230.575 56.861,230.400 56.954,230.400 57.200 C 230.400 57.446,230.265 57.568,230.100 57.471 C 229.935 57.373,229.350 57.479,228.800 57.706 C 228.250 57.933,227.440 58.187,227.000 58.271 C 226.560 58.355,226.140 58.599,226.066 58.814 C 225.992 59.029,225.767 59.103,225.566 58.979 C 225.365 58.855,225.200 58.927,225.200 59.141 C 225.200 59.355,224.885 59.481,224.500 59.422 C 223.886 59.328,221.809 59.903,220.000 60.667 C 219.670 60.806,219.044 60.988,218.610 61.071 C 218.175 61.155,217.662 61.503,217.471 61.845 C 217.237 62.264,216.808 62.388,216.161 62.226 C 215.591 62.083,215.200 62.160,215.200 62.416 C 215.200 62.653,215.020 62.736,214.800 62.600 C 214.580 62.464,214.400 62.556,214.400 62.803 C 214.400 63.072,214.077 63.151,213.600 63.000 C 213.123 62.849,212.800 62.928,212.800 63.197 C 212.800 63.444,212.620 63.536,212.400 63.400 C 212.180 63.264,212.000 63.363,212.000 63.619 C 212.000 63.876,211.752 63.991,211.450 63.874 C 211.147 63.758,210.427 63.908,209.850 64.208 C 209.272 64.507,208.795 64.628,208.788 64.476 C 208.781 64.324,208.606 64.491,208.398 64.846 C 208.150 65.271,207.674 65.427,207.010 65.300 C 206.418 65.187,206.000 65.291,206.000 65.553 C 206.000 65.799,205.865 65.979,205.700 65.953 C 204.733 65.800,203.581 66.076,203.076 66.581 C 202.757 66.900,202.385 67.052,202.250 66.917 C 202.115 66.782,201.651 66.992,201.217 67.384 C 200.784 67.776,200.168 67.997,199.848 67.874 C 199.528 67.751,199.176 67.886,199.065 68.174 C 198.954 68.464,198.405 68.647,197.832 68.584 C 197.265 68.521,196.800 68.595,196.800 68.748 C 196.800 68.901,196.305 69.066,195.700 69.116 C 195.095 69.166,194.540 69.386,194.466 69.606 C 194.392 69.825,194.167 69.903,193.966 69.779 C 193.765 69.655,193.600 69.738,193.600 69.964 C 193.600 70.190,193.353 70.280,193.052 70.164 C 192.750 70.049,192.205 70.252,191.841 70.616 C 191.477 70.980,190.914 71.176,190.590 71.051 C 190.265 70.927,190.000 71.010,190.000 71.236 C 190.000 71.462,189.832 71.544,189.628 71.417 C 189.423 71.291,189.135 71.382,188.987 71.621 C 188.840 71.859,188.467 71.958,188.160 71.840 C 187.852 71.722,187.600 71.760,187.600 71.925 C 187.600 72.090,187.115 72.266,186.522 72.315 C 185.930 72.364,185.345 72.538,185.222 72.702 C 185.100 72.866,184.640 73.063,184.200 73.140 C 183.760 73.217,183.268 73.487,183.106 73.740 C 182.944 73.993,182.809 74.061,182.806 73.891 C 182.803 73.721,182.312 73.901,181.715 74.291 C 180.883 74.835,180.717 74.861,181.000 74.400 C 181.283 73.939,181.117 73.965,180.285 74.509 C 179.688 74.899,179.200 75.102,179.200 74.960 C 179.200 74.818,178.930 74.926,178.600 75.200 C 178.270 75.474,178.000 75.564,178.000 75.400 C 178.000 75.236,177.768 75.295,177.484 75.531 C 177.200 75.766,176.345 76.068,175.584 76.201 C 174.823 76.334,174.143 76.603,174.074 76.799 C 174.005 76.995,173.708 77.063,173.415 76.950 C 173.121 76.838,172.760 76.941,172.613 77.179 C 172.465 77.418,172.177 77.509,171.972 77.383 C 171.768 77.256,171.600 77.332,171.600 77.552 C 171.600 77.771,171.285 77.929,170.900 77.903 C 170.059 77.847,165.956 79.154,165.420 79.649 C 165.211 79.842,164.626 80.000,164.120 80.000 C 163.614 80.000,163.200 80.191,163.200 80.424 C 163.200 80.657,163.020 80.736,162.800 80.600 C 162.580 80.464,162.400 80.556,162.400 80.803 C 162.400 81.064,162.080 81.152,161.642 81.013 C 161.200 80.873,160.618 81.039,160.245 81.412 C 159.894 81.763,159.423 81.938,159.200 81.800 C 158.977 81.662,158.698 81.800,158.581 82.107 C 158.463 82.413,157.969 82.630,157.483 82.588 C 156.997 82.546,156.107 82.760,155.504 83.064 C 154.901 83.368,154.316 83.613,154.204 83.608 C 153.330 83.573,153.188 83.657,153.438 84.062 C 153.620 84.356,153.547 84.415,153.239 84.224 C 152.533 83.788,150.709 84.329,151.046 84.875 C 151.234 85.178,151.042 85.252,150.463 85.101 C 149.989 84.977,149.498 85.041,149.373 85.244 C 149.247 85.447,148.977 85.509,148.772 85.383 C 148.568 85.256,148.400 85.363,148.400 85.619 C 148.400 85.876,148.135 85.984,147.812 85.860 C 147.488 85.736,146.993 85.856,146.712 86.127 C 146.430 86.397,145.930 86.599,145.600 86.575 C 145.270 86.551,144.401 86.864,143.669 87.270 C 142.937 87.677,142.172 87.907,141.969 87.781 C 141.766 87.655,141.600 87.754,141.600 88.000 C 141.600 88.246,141.417 88.334,141.193 88.195 C 140.969 88.057,140.127 88.351,139.322 88.848 C 138.444 89.391,138.001 89.522,138.214 89.176 C 138.466 88.767,138.252 88.808,137.473 89.317 C 136.871 89.711,136.202 89.925,135.989 89.793 C 135.775 89.661,135.600 89.705,135.600 89.891 C 135.600 90.077,135.285 90.265,134.900 90.308 C 133.716 90.441,128.783 92.250,129.003 92.470 C 129.118 92.584,128.664 92.693,127.996 92.712 C 127.327 92.732,126.200 93.096,125.490 93.524 C 124.781 93.951,123.965 94.214,123.677 94.109 C 123.389 94.004,122.830 94.211,122.435 94.569 C 122.034 94.931,121.424 95.107,121.058 94.967 C 120.679 94.822,120.400 94.912,120.400 95.181 C 120.400 95.437,120.220 95.536,120.000 95.400 C 119.780 95.264,119.600 95.327,119.600 95.539 C 119.600 95.751,119.240 95.831,118.800 95.716 C 118.335 95.594,118.000 95.704,118.000 95.977 C 118.000 96.236,117.820 96.336,117.600 96.200 C 117.380 96.064,117.200 96.163,117.200 96.419 C 117.200 96.676,116.952 96.791,116.650 96.674 C 116.347 96.558,115.627 96.708,115.050 97.008 C 114.472 97.307,114.000 97.437,114.000 97.296 C 114.000 97.155,113.784 97.256,113.520 97.520 C 113.256 97.784,112.626 98.000,112.120 98.000 C 111.614 98.000,111.200 98.191,111.200 98.424 C 111.200 98.657,111.020 98.736,110.800 98.600 C 110.580 98.464,110.400 98.527,110.400 98.739 C 110.400 98.951,110.067 99.038,109.660 98.931 C 109.252 98.825,108.636 99.021,108.289 99.368 C 107.943 99.714,107.399 99.898,107.081 99.776 C 106.763 99.654,106.211 99.846,105.855 100.202 C 105.498 100.559,105.057 100.759,104.874 100.646 C 104.692 100.533,104.073 100.684,103.500 100.982 C 102.926 101.280,102.354 101.420,102.228 101.295 C 102.103 101.169,102.000 101.237,102.000 101.446 C 102.000 101.655,101.583 101.860,101.074 101.902 C 100.565 101.944,99.440 102.287,98.574 102.664 C 97.708 103.040,96.865 103.315,96.700 103.274 C 96.535 103.233,96.400 103.395,96.400 103.633 C 96.400 103.872,96.175 103.991,95.900 103.898 C 95.625 103.806,95.162 104.016,94.870 104.365 C 94.460 104.857,94.410 104.864,94.647 104.400 C 94.904 103.897,94.851 103.883,94.319 104.314 C 93.970 104.597,93.530 104.798,93.342 104.761 C 92.660 104.626,90.400 105.309,90.400 105.650 C 90.400 105.843,89.990 106.000,89.489 106.000 C 88.988 106.000,88.178 106.280,87.688 106.623 C 87.199 106.966,86.619 107.135,86.399 107.000 C 86.180 106.864,86.000 106.943,86.000 107.176 C 86.000 107.409,85.865 107.562,85.700 107.515 C 85.535 107.468,84.973 107.666,84.452 107.955 C 83.722 108.359,83.575 108.364,83.814 107.978 C 84.138 107.454,83.545 107.701,82.462 108.542 C 82.167 108.772,81.371 109.003,80.693 109.054 C 80.015 109.106,79.291 109.451,79.084 109.822 C 78.775 110.374,78.644 110.397,78.359 109.948 C 78.119 109.568,78.010 109.549,78.006 109.887 C 78.003 110.156,77.730 110.271,77.400 110.145 C 77.070 110.018,76.800 110.122,76.800 110.375 C 76.800 110.628,76.575 110.784,76.300 110.722 C 75.519 110.546,70.802 112.080,71.024 112.438 C 71.132 112.614,70.878 112.692,70.459 112.611 C 70.040 112.531,69.238 112.703,68.677 112.994 C 68.116 113.285,67.554 113.420,67.428 113.295 C 67.303 113.169,67.200 113.271,67.200 113.521 C 67.200 113.771,66.930 113.871,66.600 113.745 C 66.270 113.618,66.000 113.724,66.000 113.981 C 66.000 114.237,65.820 114.336,65.600 114.200 C 65.380 114.064,65.200 114.156,65.200 114.403 C 65.200 114.664,64.880 114.752,64.442 114.613 C 64.000 114.473,63.418 114.639,63.045 115.012 C 62.694 115.363,62.237 115.547,62.031 115.419 C 61.824 115.291,61.540 115.373,61.400 115.600 C 61.260 115.827,60.977 115.909,60.772 115.783 C 60.568 115.656,60.400 115.763,60.400 116.019 C 60.400 116.276,60.130 116.382,59.800 116.255 C 59.470 116.129,59.200 116.160,59.200 116.325 C 59.200 116.490,58.783 116.660,58.274 116.702 C 57.765 116.744,56.640 117.087,55.774 117.464 C 54.908 117.840,54.065 118.115,53.900 118.074 C 53.735 118.033,53.600 118.199,53.600 118.443 C 53.600 118.686,53.351 118.790,53.046 118.673 C 52.741 118.556,52.111 118.727,51.645 119.053 C 51.180 119.379,50.619 119.535,50.399 119.400 C 50.180 119.264,50.000 119.313,50.000 119.510 C 50.000 119.706,49.775 119.882,49.500 119.901 C 48.310 119.983,46.993 120.421,46.875 120.774 C 46.806 120.983,46.508 121.063,46.215 120.950 C 45.921 120.838,45.560 120.941,45.413 121.179 C 45.265 121.418,44.977 121.509,44.772 121.383 C 44.568 121.256,44.400 121.354,44.400 121.600 C 44.400 121.846,44.212 121.931,43.982 121.789 C 43.753 121.647,43.107 121.831,42.548 122.197 C 41.988 122.564,41.426 122.759,41.297 122.631 C 41.169 122.502,40.639 122.675,40.121 123.015 C 39.602 123.355,39.002 123.525,38.789 123.393 C 38.575 123.261,38.400 123.373,38.400 123.643 C 38.400 123.913,38.287 124.020,38.149 123.883 C 38.011 123.745,37.246 123.911,36.449 124.253 C 35.652 124.594,34.820 124.917,34.600 124.969 C 32.454 125.484,30.744 126.113,30.308 126.549 C 30.018 126.839,29.389 127.017,28.910 126.944 C 28.432 126.871,27.929 126.992,27.793 127.212 C 27.656 127.433,27.377 127.509,27.172 127.383 C 26.968 127.256,26.800 127.354,26.800 127.600 C 26.800 127.846,26.632 127.944,26.428 127.817 C 26.223 127.691,25.940 127.773,25.800 128.000 C 25.660 128.227,25.377 128.309,25.172 128.183 C 24.968 128.056,24.800 128.156,24.800 128.403 C 24.800 128.664,24.480 128.752,24.042 128.613 C 23.625 128.481,23.040 128.610,22.742 128.901 C 22.444 129.191,21.766 129.458,21.236 129.494 C 20.706 129.530,20.149 129.758,19.999 130.001 C 19.849 130.244,19.563 130.398,19.363 130.345 C 18.702 130.168,16.400 130.857,16.400 131.232 C 16.400 131.434,16.265 131.579,16.100 131.553 C 15.124 131.398,13.979 131.679,13.458 132.199 C 13.129 132.528,12.599 132.698,12.281 132.576 C 11.963 132.454,11.401 132.656,11.033 133.025 C 10.664 133.393,10.258 133.591,10.130 133.464 C 10.003 133.336,9.381 133.499,8.749 133.826 C 8.117 134.153,7.600 134.321,7.600 134.200 C 7.600 134.079,7.062 134.258,6.404 134.598 C 5.746 134.938,5.116 135.213,5.004 135.208 C 4.152 135.174,3.979 135.243,4.164 135.542 C 4.281 135.730,3.904 135.794,3.328 135.684 C 2.535 135.532,2.360 135.611,2.606 136.010 C 2.841 136.390,2.747 136.465,2.266 136.281 C 1.899 136.140,1.600 136.218,1.600 136.455 C 1.600 136.692,1.345 136.788,1.033 136.668 C 0.375 136.415,-0.000 137.190,-0.000 138.803 C -0.000 139.795,0.296 140.083,2.300 141.039 C 3.565 141.643,4.915 142.404,5.300 142.731 C 5.685 143.057,6.000 143.193,6.000 143.033 C 6.000 142.874,6.285 143.027,6.632 143.375 C 6.980 143.723,7.430 143.905,7.632 143.780 C 7.835 143.655,8.000 143.773,8.000 144.043 C 8.000 144.313,8.111 144.422,8.248 144.286 C 8.384 144.150,8.767 144.310,9.099 144.642 C 9.431 144.974,9.957 145.149,10.267 145.030 C 10.577 144.911,10.932 145.079,11.057 145.404 C 11.182 145.729,11.445 145.896,11.642 145.774 C 11.839 145.652,12.000 145.754,12.000 146.000 C 12.000 146.246,12.180 146.336,12.400 146.200 C 12.620 146.064,12.800 146.154,12.800 146.400 C 12.800 146.646,12.980 146.736,13.200 146.600 C 13.420 146.464,13.600 146.554,13.600 146.800 C 13.600 147.046,13.780 147.136,14.000 147.000 C 14.220 146.864,14.400 146.940,14.400 147.169 C 14.400 147.398,14.850 147.698,15.400 147.836 C 15.950 147.974,16.400 148.247,16.400 148.443 C 16.400 148.640,16.856 148.800,17.413 148.800 C 17.969 148.800,18.528 149.069,18.654 149.398 C 18.781 149.726,19.045 149.896,19.242 149.774 C 19.439 149.652,19.600 149.738,19.600 149.964 C 19.600 150.190,19.900 150.260,20.266 150.119 C 20.713 149.948,20.836 150.017,20.642 150.332 C 20.359 150.790,20.842 150.971,21.940 150.821 C 22.237 150.780,22.362 150.939,22.217 151.173 C 21.957 151.593,22.474 151.767,23.540 151.621 C 23.837 151.580,23.962 151.739,23.817 151.973 C 23.580 152.356,24.084 152.576,24.900 152.447 C 25.065 152.421,25.200 152.591,25.200 152.824 C 25.200 153.057,25.380 153.136,25.600 153.000 C 25.820 152.864,26.000 152.963,26.000 153.219 C 26.000 153.476,26.278 153.579,26.621 153.447 C 26.977 153.311,27.137 153.378,26.997 153.605 C 26.777 153.960,27.306 154.173,28.100 154.047 C 28.265 154.021,28.400 154.158,28.400 154.351 C 28.400 154.727,30.647 155.779,30.941 155.541 C 31.037 155.464,31.495 155.743,31.958 156.162 C 32.421 156.581,32.800 156.778,32.800 156.600 C 32.800 156.422,33.130 156.574,33.532 156.939 C 33.935 157.303,34.385 157.481,34.532 157.334 C 34.680 157.187,34.800 157.307,34.800 157.600 C 34.800 157.893,34.911 158.022,35.048 157.886 C 35.184 157.750,35.558 157.901,35.880 158.223 C 36.201 158.544,36.630 158.705,36.832 158.580 C 37.035 158.455,37.200 158.543,37.200 158.776 C 37.200 159.009,37.448 159.200,37.751 159.200 C 38.054 159.200,38.524 159.468,38.796 159.796 C 39.068 160.123,39.450 160.293,39.645 160.172 C 39.840 160.051,40.000 160.154,40.000 160.400 C 40.000 160.646,40.180 160.736,40.400 160.600 C 40.620 160.464,40.800 160.554,40.800 160.800 C 40.800 161.046,40.980 161.136,41.200 161.000 C 41.420 160.864,41.600 160.973,41.600 161.243 C 41.600 161.513,41.711 161.622,41.848 161.486 C 41.984 161.350,42.367 161.510,42.699 161.842 C 43.031 162.174,43.557 162.349,43.867 162.230 C 44.177 162.111,44.532 162.279,44.657 162.604 C 44.782 162.929,45.045 163.096,45.242 162.974 C 45.439 162.852,45.600 162.954,45.600 163.200 C 45.600 163.446,45.780 163.536,46.000 163.400 C 46.220 163.264,46.400 163.354,46.400 163.600 C 46.400 163.846,46.580 163.936,46.800 163.800 C 47.020 163.664,47.200 163.754,47.200 164.000 C 47.200 164.246,47.380 164.336,47.600 164.200 C 47.820 164.064,48.000 164.140,48.000 164.369 C 48.000 164.598,48.450 164.898,49.000 165.036 C 49.550 165.174,50.000 165.447,50.000 165.643 C 50.000 165.840,50.360 166.000,50.800 166.000 C 51.240 166.000,51.600 166.191,51.600 166.424 C 51.600 166.657,51.780 166.736,52.000 166.600 C 52.220 166.464,52.400 166.554,52.400 166.800 C 52.400 167.046,52.580 167.136,52.800 167.000 C 53.020 166.864,53.200 166.938,53.200 167.164 C 53.200 167.390,53.500 167.460,53.866 167.319 C 54.313 167.148,54.436 167.217,54.242 167.532 C 53.986 167.946,54.230 168.076,55.055 167.966 C 55.196 167.947,55.422 168.113,55.559 168.334 C 55.696 168.555,56.072 168.795,56.394 168.868 C 56.717 168.941,57.225 169.227,57.523 169.504 C 57.821 169.781,58.230 169.905,58.432 169.780 C 58.635 169.655,58.800 169.754,58.800 170.000 C 58.800 170.246,58.980 170.336,59.200 170.200 C 59.420 170.064,59.600 170.163,59.600 170.419 C 59.600 170.676,59.844 170.792,60.141 170.678 C 60.439 170.564,60.984 170.822,61.352 171.252 C 61.720 171.682,62.197 171.926,62.411 171.793 C 62.625 171.661,62.800 171.722,62.800 171.928 C 62.800 172.327,65.194 173.455,65.700 173.295 C 65.865 173.243,66.000 173.410,66.000 173.667 C 66.000 173.923,66.111 174.022,66.248 173.886 C 66.384 173.750,66.758 173.901,67.080 174.223 C 67.401 174.544,67.830 174.705,68.032 174.580 C 68.235 174.455,68.400 174.573,68.400 174.843 C 68.400 175.113,68.511 175.222,68.648 175.086 C 68.784 174.950,69.158 175.101,69.480 175.423 C 69.801 175.744,70.230 175.905,70.432 175.780 C 70.635 175.655,70.800 175.710,70.800 175.902 C 70.800 176.094,71.430 176.498,72.200 176.800 C 72.970 177.102,73.600 177.506,73.600 177.698 C 73.600 177.890,73.780 177.936,74.000 177.800 C 74.220 177.664,74.400 177.754,74.400 178.000 C 74.400 178.246,74.580 178.336,74.800 178.200 C 75.020 178.064,75.200 178.154,75.200 178.400 C 75.200 178.646,75.380 178.736,75.600 178.600 C 75.820 178.464,76.000 178.531,76.000 178.749 C 76.000 179.147,77.537 179.828,78.100 179.679 C 78.265 179.636,78.400 179.791,78.400 180.024 C 78.400 180.257,78.580 180.336,78.800 180.200 C 79.020 180.064,79.200 180.154,79.200 180.400 C 79.200 180.646,79.380 180.736,79.600 180.600 C 79.820 180.464,80.000 180.554,80.000 180.800 C 80.000 181.046,80.180 181.136,80.400 181.000 C 80.620 180.864,80.800 180.954,80.800 181.200 C 80.800 181.446,80.980 181.536,81.200 181.400 C 81.420 181.264,81.600 181.314,81.600 181.511 C 81.600 181.709,82.590 182.288,83.800 182.800 C 85.010 183.312,86.000 183.891,86.000 184.089 C 86.000 184.286,86.165 184.345,86.368 184.220 C 86.570 184.095,87.001 184.258,87.325 184.582 C 87.649 184.906,88.154 185.223,88.448 185.286 C 88.741 185.349,89.225 185.627,89.523 185.904 C 89.821 186.181,90.230 186.305,90.432 186.180 C 90.635 186.055,90.800 186.154,90.800 186.400 C 90.800 186.646,90.980 186.736,91.200 186.600 C 91.420 186.464,91.600 186.554,91.600 186.800 C 91.600 187.046,91.780 187.136,92.000 187.000 C 92.220 186.864,92.400 186.954,92.400 187.200 C 92.400 187.446,92.580 187.536,92.800 187.400 C 93.020 187.264,93.200 187.324,93.200 187.534 C 93.200 187.743,93.479 188.022,93.821 188.153 C 94.173 188.288,94.337 188.222,94.200 188.000 C 94.063 187.779,94.227 187.712,94.577 187.846 C 94.917 187.977,95.096 188.245,94.974 188.442 C 94.778 188.760,95.077 188.870,95.855 188.766 C 95.996 188.747,96.222 188.913,96.359 189.134 C 96.496 189.355,96.872 189.595,97.194 189.668 C 97.517 189.741,98.025 190.027,98.323 190.304 C 98.621 190.581,99.030 190.705,99.232 190.580 C 99.435 190.455,99.600 190.554,99.600 190.800 C 99.600 191.046,99.780 191.136,100.000 191.000 C 100.220 190.864,100.400 190.954,100.400 191.200 C 100.400 191.446,100.580 191.536,100.800 191.400 C 101.020 191.264,101.200 191.354,101.200 191.600 C 101.200 191.846,101.380 191.936,101.600 191.800 C 101.820 191.664,102.000 191.754,102.000 192.000 C 102.000 192.246,102.180 192.336,102.400 192.200 C 102.620 192.064,102.800 192.154,102.800 192.400 C 102.800 192.646,102.980 192.736,103.200 192.600 C 103.420 192.464,103.600 192.554,103.600 192.800 C 103.600 193.046,103.780 193.136,104.000 193.000 C 104.220 192.864,104.400 192.943,104.400 193.176 C 104.400 193.409,104.760 193.600,105.200 193.600 C 105.640 193.600,106.000 193.780,106.000 194.000 C 106.000 194.220,106.193 194.400,106.429 194.400 C 106.664 194.400,107.129 194.672,107.461 195.004 C 107.793 195.336,108.230 195.505,108.432 195.380 C 108.635 195.255,108.800 195.354,108.800 195.600 C 108.800 195.846,108.980 195.936,109.200 195.800 C 109.420 195.664,109.600 195.731,109.600 195.949 C 109.600 196.347,111.137 197.028,111.700 196.879 C 111.865 196.836,112.000 196.991,112.000 197.224 C 112.000 197.457,112.180 197.536,112.400 197.400 C 112.620 197.264,112.800 197.354,112.800 197.600 C 112.800 197.846,112.980 197.936,113.200 197.800 C 113.420 197.664,113.600 197.754,113.600 198.000 C 113.600 198.246,113.780 198.336,114.000 198.200 C 114.220 198.064,114.400 198.154,114.400 198.400 C 114.400 198.646,114.580 198.736,114.800 198.600 C 115.020 198.464,115.200 198.514,115.200 198.711 C 115.200 198.909,116.190 199.488,117.400 200.000 C 118.610 200.512,119.600 201.091,119.600 201.289 C 119.600 201.486,119.765 201.545,119.968 201.420 C 120.170 201.295,120.601 201.458,120.925 201.782 C 121.249 202.106,121.754 202.423,122.048 202.486 C 122.341 202.549,122.815 202.817,123.102 203.083 C 123.389 203.349,123.886 203.465,124.208 203.342 C 124.536 203.216,124.901 203.399,125.039 203.756 C 125.173 204.108,125.445 204.296,125.642 204.174 C 125.839 204.052,126.000 204.154,126.000 204.400 C 126.000 204.646,126.165 204.745,126.366 204.621 C 126.567 204.497,126.792 204.563,126.866 204.768 C 126.940 204.972,127.266 205.198,127.590 205.270 C 127.915 205.341,128.425 205.627,128.723 205.904 C 129.021 206.181,129.430 206.305,129.632 206.180 C 129.835 206.055,130.000 206.154,130.000 206.400 C 130.000 206.646,130.194 206.727,130.431 206.581 C 130.667 206.435,131.218 206.698,131.654 207.166 C 132.091 207.635,132.617 207.913,132.824 207.785 C 133.031 207.657,133.200 207.731,133.200 207.949 C 133.200 208.347,134.737 209.028,135.300 208.879 C 135.465 208.836,135.600 208.991,135.600 209.224 C 135.600 209.457,135.780 209.536,136.000 209.400 C 136.220 209.264,136.400 209.354,136.400 209.600 C 136.400 209.846,136.580 209.936,136.800 209.800 C 137.020 209.664,137.200 209.754,137.200 210.000 C 137.200 210.246,137.380 210.336,137.600 210.200 C 137.820 210.064,138.000 210.143,138.000 210.376 C 138.000 210.609,138.360 210.800,138.800 210.800 C 139.240 210.800,139.600 210.980,139.600 211.200 C 139.600 211.420,139.793 211.600,140.029 211.600 C 140.264 211.600,140.729 211.872,141.061 212.204 C 141.393 212.536,141.830 212.705,142.032 212.580 C 142.235 212.455,142.400 212.554,142.400 212.800 C 142.400 213.046,142.580 213.136,142.800 213.000 C 143.020 212.864,143.200 212.922,143.200 213.128 C 143.200 213.527,145.594 214.655,146.100 214.495 C 146.265 214.443,146.400 214.591,146.400 214.824 C 146.400 215.057,146.580 215.136,146.800 215.000 C 147.020 214.864,147.200 214.954,147.200 215.200 C 147.200 215.446,147.380 215.536,147.600 215.400 C 147.820 215.264,148.000 215.354,148.000 215.600 C 148.000 215.846,148.180 215.936,148.400 215.800 C 148.620 215.664,148.800 215.754,148.800 216.000 C 148.800 216.246,148.980 216.336,149.200 216.200 C 149.420 216.064,149.600 216.107,149.600 216.294 C 149.600 216.482,150.410 216.970,151.400 217.378 C 152.390 217.787,153.200 218.284,153.200 218.484 C 153.200 218.684,153.360 218.749,153.555 218.628 C 153.750 218.507,154.139 218.685,154.419 219.023 C 154.699 219.360,155.165 219.546,155.454 219.435 C 155.742 219.324,156.119 219.481,156.289 219.784 C 156.460 220.087,156.870 220.395,157.200 220.468 C 157.530 220.540,157.892 220.721,158.004 220.868 C 158.116 221.015,158.472 221.195,158.794 221.268 C 159.117 221.341,159.625 221.627,159.923 221.904 C 160.221 222.181,160.630 222.305,160.832 222.180 C 161.035 222.055,161.200 222.143,161.200 222.376 C 161.200 222.609,161.616 222.800,162.125 222.800 C 162.633 222.800,163.421 223.146,163.875 223.569 C 164.972 224.591,169.437 226.829,169.752 226.515 C 169.888 226.378,170.000 226.487,170.000 226.757 C 170.000 227.027,170.180 227.136,170.400 227.000 C 170.620 226.864,170.800 226.954,170.800 227.200 C 170.800 227.446,170.980 227.536,171.200 227.400 C 171.420 227.264,171.600 227.388,171.600 227.675 C 171.600 227.962,222.810 176.988,285.400 114.399 C 347.990 51.811,399.200 0.457,399.200 0.280 C 399.200 0.104,398.210 -0.001,397.000 0.048 C 395.790 0.097,394.800 0.280,394.800 0.456 " stroke="none" fill="#04c4f4" fill-rule="evenodd"></path><path id="path1" d="M285.697 113.967 L 171.994 227.800 176.625 237.176 C 179.172 242.333,181.558 246.783,181.928 247.064 C 182.298 247.345,182.437 247.580,182.238 247.587 C 182.039 247.594,182.161 247.915,182.510 248.300 C 182.858 248.685,183.148 249.139,183.153 249.309 C 183.175 249.979,185.475 254.391,185.691 254.176 C 185.817 254.050,185.893 254.187,185.860 254.480 C 185.770 255.279,188.934 261.571,189.433 261.587 C 189.672 261.594,189.867 261.835,189.867 262.123 C 189.867 262.979,199.610 282.520,200.542 283.532 C 201.014 284.045,201.329 284.495,201.243 284.532 C 201.156 284.570,201.437 285.369,201.868 286.308 C 202.299 287.247,202.803 287.877,202.990 287.708 C 203.176 287.539,203.203 287.618,203.050 287.885 C 202.721 288.458,204.625 292.400,205.230 292.400 C 205.460 292.400,205.540 292.573,205.410 292.784 C 205.192 293.136,205.872 294.729,206.442 295.200 C 206.575 295.310,209.025 300.178,211.887 306.017 C 214.750 311.857,217.354 316.897,217.674 317.217 C 217.995 317.538,218.254 317.890,218.249 318.000 C 218.224 318.653,222.039 326.000,222.404 326.000 C 222.648 326.000,222.743 326.168,222.616 326.374 C 222.369 326.773,223.750 329.531,224.532 330.201 C 224.789 330.422,225.055 330.858,225.123 331.169 C 225.413 332.509,233.775 349.139,234.068 348.958 C 234.245 348.848,234.284 349.036,234.154 349.376 C 234.015 349.739,234.180 350.094,234.556 350.239 C 234.908 350.373,235.096 350.645,234.974 350.842 C 234.852 351.039,234.954 351.200,235.200 351.200 C 235.446 351.200,235.545 351.365,235.420 351.568 C 235.295 351.770,235.477 352.220,235.825 352.568 C 236.173 352.915,236.346 353.200,236.210 353.200 C 236.075 353.200,237.170 355.540,238.645 358.400 C 240.120 361.260,241.479 363.600,241.664 363.600 C 241.849 363.600,242.000 364.050,242.000 364.600 C 242.000 365.150,242.180 365.600,242.400 365.600 C 242.620 365.600,242.800 365.960,242.800 366.400 C 242.800 366.840,242.938 367.200,243.106 367.200 C 243.414 367.200,244.800 370.107,244.800 370.754 C 244.800 370.945,245.068 371.324,245.396 371.596 C 245.723 371.868,245.900 372.238,245.789 372.418 C 245.678 372.598,245.760 372.852,245.972 372.982 C 246.183 373.113,247.525 375.646,248.954 378.610 C 250.383 381.575,251.737 384.000,251.964 384.000 C 252.190 384.000,252.272 384.268,252.146 384.597 C 252.015 384.937,252.192 385.299,252.556 385.439 C 252.908 385.573,253.096 385.845,252.974 386.042 C 252.852 386.239,252.913 386.400,253.110 386.400 C 253.306 386.400,253.472 386.625,253.480 386.900 C 253.502 387.775,259.482 399.185,259.768 398.899 C 259.919 398.748,259.924 398.934,259.778 399.312 C 259.552 399.902,259.780 400.000,261.370 400.000 C 262.790 400.000,263.274 399.836,263.435 399.300 C 263.551 398.915,263.980 397.744,264.390 396.697 C 264.799 395.650,264.950 394.907,264.725 395.046 C 264.501 395.185,264.624 394.830,264.999 394.258 C 265.614 393.319,266.314 391.177,266.521 389.600 C 266.565 389.270,266.870 388.781,267.200 388.513 C 267.530 388.245,267.660 388.020,267.490 388.013 C 267.319 388.006,267.459 387.460,267.800 386.800 C 268.141 386.140,268.320 385.600,268.196 385.600 C 268.073 385.600,268.173 385.224,268.419 384.765 C 268.665 384.306,268.952 383.456,269.057 382.877 C 269.162 382.298,269.439 381.594,269.673 381.312 C 269.907 381.031,269.982 380.800,269.840 380.800 C 269.698 380.800,269.856 380.381,270.192 379.868 C 270.528 379.356,270.698 378.831,270.569 378.702 C 270.440 378.574,270.568 378.048,270.853 377.534 C 271.137 377.020,271.329 376.458,271.280 376.284 C 271.230 376.110,271.408 375.570,271.675 375.084 C 271.942 374.598,272.218 373.854,272.288 373.431 C 272.359 373.009,272.569 372.469,272.757 372.231 C 272.944 371.994,273.046 371.484,272.984 371.098 C 272.921 370.712,273.011 370.483,273.182 370.589 C 273.353 370.695,273.774 369.841,274.118 368.691 C 274.461 367.541,275.095 365.408,275.528 363.950 C 275.961 362.493,276.595 360.693,276.937 359.950 C 277.279 359.208,277.952 357.340,278.434 355.800 C 278.915 354.260,279.414 352.820,279.543 352.600 C 279.672 352.380,279.820 352.020,279.873 351.800 C 280.114 350.784,281.621 346.536,281.929 346.000 C 282.119 345.670,282.253 344.918,282.226 344.329 C 282.198 343.741,282.362 343.291,282.588 343.329 C 282.815 343.368,282.990 342.916,282.979 342.325 C 282.967 341.734,283.102 341.339,283.279 341.449 C 283.455 341.558,283.600 341.457,283.600 341.224 C 283.600 340.550,283.671 340.263,284.098 339.200 C 285.386 335.992,286.072 334.087,286.245 333.228 C 286.353 332.693,286.562 332.063,286.709 331.828 C 286.856 331.593,287.031 331.054,287.096 330.631 C 287.162 330.209,287.414 329.624,287.657 329.331 C 287.899 329.039,287.964 328.800,287.800 328.800 C 287.636 328.800,287.701 328.561,287.943 328.269 C 288.186 327.976,288.451 327.391,288.532 326.969 C 288.613 326.546,288.811 325.899,288.971 325.531 C 289.131 325.163,289.311 324.623,289.370 324.331 C 289.430 324.039,289.610 323.499,289.770 323.131 C 289.931 322.763,290.098 322.223,290.142 321.931 C 290.186 321.639,290.334 321.220,290.471 321.000 C 290.739 320.568,291.743 317.255,291.805 316.600 C 291.825 316.380,292.124 315.660,292.468 315.000 C 292.812 314.340,293.332 312.855,293.623 311.700 C 293.913 310.545,294.308 309.600,294.499 309.600 C 294.691 309.600,294.768 309.465,294.671 309.300 C 294.573 309.135,294.678 308.550,294.902 308.000 C 296.116 305.024,297.640 300.472,297.715 299.600 C 297.762 299.050,298.025 298.456,298.300 298.280 C 298.575 298.104,298.800 297.628,298.800 297.222 C 298.800 296.815,299.320 295.204,299.956 293.641 C 300.592 292.079,301.036 290.800,300.942 290.800 C 300.849 290.800,300.973 290.424,301.219 289.965 C 301.465 289.506,301.752 288.656,301.857 288.077 C 301.962 287.498,302.183 286.839,302.348 286.612 C 302.514 286.386,302.633 285.930,302.614 285.600 C 302.595 285.270,302.854 284.781,303.190 284.513 C 303.525 284.245,303.660 284.020,303.490 284.013 C 303.319 284.006,303.469 283.440,303.823 282.756 C 304.177 282.072,304.271 281.633,304.032 281.780 C 303.794 281.927,303.977 281.407,304.439 280.624 C 304.901 279.841,305.167 279.200,305.029 279.200 C 304.892 279.200,305.059 278.660,305.400 278.000 C 305.741 277.340,305.904 276.800,305.761 276.800 C 305.619 276.800,305.701 276.561,305.943 276.269 C 306.186 275.976,306.438 275.391,306.504 274.969 C 306.569 274.546,306.734 274.020,306.869 273.800 C 307.312 273.080,309.600 265.450,309.600 264.692 C 309.600 264.286,309.758 264.050,309.951 264.170 C 310.269 264.366,310.853 262.728,311.011 261.200 C 311.074 260.592,311.466 259.583,312.840 256.489 C 313.258 255.548,313.600 254.511,313.600 254.184 C 313.600 253.857,313.764 253.277,313.965 252.895 C 314.462 251.947,315.681 248.448,315.561 248.311 C 315.508 248.250,315.690 247.779,315.965 247.265 C 316.241 246.751,316.540 245.920,316.631 245.418 C 316.722 244.917,317.051 243.898,317.362 243.153 C 317.673 242.409,317.913 241.710,317.896 241.600 C 317.879 241.490,318.090 240.979,318.365 240.465 C 318.641 239.951,318.950 239.063,319.054 238.493 C 319.157 237.923,319.362 237.263,319.510 237.028 C 319.657 236.793,319.814 236.361,319.858 236.069 C 319.902 235.777,320.072 235.237,320.235 234.869 C 320.398 234.501,320.546 234.080,320.565 233.933 C 320.584 233.787,320.735 233.532,320.900 233.367 C 321.065 233.202,321.200 232.683,321.200 232.213 C 321.200 231.744,321.392 231.168,321.627 230.933 C 321.862 230.698,322.116 229.897,322.192 229.153 C 322.268 228.409,322.346 227.654,322.365 227.476 C 322.384 227.298,322.543 227.241,322.717 227.349 C 322.891 227.456,323.077 226.979,323.130 226.288 C 323.182 225.597,323.372 224.934,323.551 224.816 C 323.850 224.618,324.499 222.751,324.600 221.800 C 324.623 221.580,324.948 220.824,325.321 220.120 C 325.694 219.416,326.000 218.501,326.000 218.087 C 326.000 217.672,326.116 217.217,326.259 217.075 C 326.401 216.932,326.823 215.957,327.197 214.908 C 327.570 213.859,328.177 212.156,328.546 211.124 C 328.914 210.092,329.184 209.102,329.146 208.924 C 329.108 208.746,329.358 207.970,329.702 207.200 C 330.046 206.430,330.340 205.663,330.355 205.496 C 330.371 205.329,330.662 204.654,331.002 203.996 C 331.342 203.338,331.544 202.800,331.451 202.800 C 331.357 202.800,331.822 201.405,332.484 199.700 C 333.146 197.995,333.712 196.122,333.742 195.537 C 333.772 194.953,333.933 194.559,334.099 194.661 C 334.264 194.763,334.414 194.702,334.431 194.524 C 334.521 193.568,334.799 192.543,335.166 191.817 C 335.899 190.364,336.855 187.427,336.928 186.400 C 336.968 185.850,337.167 185.279,337.372 185.132 C 337.576 184.985,337.788 184.566,337.841 184.201 C 337.895 183.836,338.069 183.237,338.229 182.869 C 338.389 182.501,338.587 181.854,338.668 181.431 C 338.749 181.009,339.014 180.424,339.257 180.131 C 339.499 179.839,339.564 179.600,339.400 179.600 C 339.236 179.600,339.301 179.361,339.543 179.069 C 339.786 178.776,340.050 178.191,340.131 177.769 C 340.212 177.346,340.472 176.527,340.710 175.950 C 340.948 175.372,341.352 174.112,341.607 173.150 C 341.863 172.187,342.315 170.860,342.613 170.200 C 343.338 168.592,344.800 164.001,344.800 163.334 C 344.800 163.040,344.980 162.800,345.200 162.800 C 345.420 162.800,345.557 162.665,345.505 162.500 C 345.453 162.335,345.619 161.660,345.874 161.000 C 346.390 159.666,348.050 154.426,348.155 153.800 C 348.192 153.580,348.363 153.175,348.535 152.900 C 348.707 152.625,348.748 152.239,348.626 152.042 C 348.504 151.845,348.674 151.581,349.002 151.454 C 349.331 151.328,349.600 150.878,349.600 150.454 C 349.600 150.030,350.120 148.404,350.756 146.841 C 351.392 145.279,351.836 144.000,351.742 144.000 C 351.649 144.000,351.773 143.624,352.019 143.165 C 352.265 142.706,352.552 141.856,352.657 141.277 C 352.762 140.698,353.039 139.994,353.273 139.712 C 353.507 139.431,353.580 139.200,353.435 139.200 C 353.290 139.200,353.395 138.795,353.667 138.300 C 353.940 137.805,354.172 137.220,354.183 137.000 C 354.195 136.780,354.394 136.240,354.627 135.800 C 354.860 135.360,355.019 134.600,354.980 134.110 C 354.942 133.621,355.047 133.305,355.213 133.408 C 355.380 133.511,355.623 133.317,355.754 132.977 C 355.893 132.615,355.823 132.462,355.586 132.609 C 355.363 132.747,355.545 132.211,355.990 131.418 C 356.436 130.625,356.800 129.657,356.800 129.268 C 356.800 128.879,356.955 128.389,357.144 128.180 C 357.334 127.971,358.163 125.640,358.988 123.000 C 359.812 120.360,360.615 118.020,360.771 117.800 C 360.928 117.580,361.291 116.590,361.579 115.600 C 361.866 114.610,362.568 112.540,363.138 111.000 C 363.709 109.460,364.183 108.110,364.192 108.000 C 364.202 107.890,364.415 107.260,364.667 106.600 C 365.588 104.186,365.723 103.786,365.868 103.031 C 365.949 102.609,366.214 102.024,366.457 101.731 C 366.699 101.439,366.780 101.200,366.635 101.200 C 366.490 101.200,366.571 100.828,366.814 100.374 C 367.057 99.920,367.330 99.155,367.420 98.674 C 367.510 98.193,367.762 97.440,367.981 97.000 C 368.517 95.920,369.587 92.826,369.838 91.628 C 369.950 91.093,370.162 90.463,370.309 90.228 C 370.456 89.993,370.631 89.454,370.696 89.031 C 370.762 88.609,371.014 88.024,371.257 87.731 C 371.499 87.439,371.564 87.200,371.400 87.200 C 371.236 87.200,371.301 86.961,371.543 86.669 C 371.786 86.376,372.051 85.791,372.132 85.369 C 372.213 84.946,372.411 84.299,372.571 83.931 C 372.731 83.563,372.911 83.023,372.970 82.731 C 373.030 82.439,373.210 81.899,373.370 81.531 C 373.531 81.163,373.710 80.623,373.769 80.331 C 373.829 80.039,374.062 79.350,374.288 78.800 C 374.513 78.250,374.833 77.170,374.998 76.400 C 375.163 75.630,375.651 74.303,376.082 73.450 C 376.514 72.598,376.781 71.571,376.676 71.169 C 376.571 70.767,376.660 70.380,376.874 70.309 C 377.087 70.238,377.580 69.284,377.969 68.190 C 378.357 67.095,378.986 65.328,379.366 64.262 C 379.747 63.196,379.961 62.228,379.843 62.110 C 379.725 61.991,379.892 61.519,380.214 61.058 C 380.536 60.598,380.800 59.902,380.800 59.511 C 380.800 59.120,381.010 58.800,381.267 58.800 C 381.523 58.800,381.621 58.687,381.483 58.549 C 381.345 58.411,381.499 57.781,381.826 57.149 C 382.153 56.517,382.344 56.000,382.251 56.000 C 382.157 56.000,382.613 54.605,383.262 52.900 C 383.912 51.195,384.533 49.363,384.643 48.828 C 384.752 48.293,384.962 47.663,385.110 47.428 C 385.257 47.193,385.414 46.761,385.458 46.469 C 385.502 46.177,385.672 45.637,385.835 45.269 C 385.998 44.901,386.146 44.480,386.165 44.333 C 386.184 44.187,386.335 43.932,386.500 43.767 C 386.665 43.602,386.806 43.092,386.813 42.633 C 386.820 42.175,387.084 41.458,387.400 41.041 C 387.716 40.624,387.875 40.121,387.753 39.924 C 387.631 39.726,387.736 39.318,387.986 39.017 C 388.236 38.716,388.531 37.971,388.641 37.363 C 388.751 36.754,388.962 36.063,389.109 35.828 C 389.256 35.593,389.432 35.044,389.500 34.609 C 389.568 34.173,389.798 33.642,390.011 33.429 C 390.225 33.215,390.400 32.662,390.400 32.200 C 390.400 31.738,390.554 31.189,390.742 30.980 C 391.114 30.568,392.400 26.719,392.400 26.020 C 392.400 25.784,392.750 24.828,393.179 23.896 C 393.607 22.963,394.352 20.940,394.833 19.400 C 395.314 17.860,395.886 16.375,396.103 16.100 C 396.320 15.825,396.381 15.600,396.239 15.600 C 396.096 15.600,396.259 15.060,396.600 14.400 C 396.941 13.740,397.136 13.200,397.033 13.200 C 396.929 13.200,397.364 11.760,398.000 10.000 C 398.636 8.240,399.065 6.800,398.955 6.800 C 398.845 6.800,399.035 6.400,399.377 5.911 C 400.016 4.999,400.296 -0.066,399.700 0.067 C 399.535 0.103,348.234 51.358,285.697 113.967 M340.400 19.000 C 339.712 19.393,339.603 19.576,340.051 19.586 C 340.409 19.594,340.926 19.330,341.200 19.000 C 341.809 18.266,341.684 18.266,340.400 19.000 M271.300 42.812 C 270.805 43.011,270.400 43.270,270.400 43.387 C 270.400 43.775,271.037 43.608,271.824 43.013 C 272.708 42.343,272.585 42.296,271.300 42.812 M216.200 62.000 C 216.064 62.220,216.223 62.400,216.553 62.400 C 216.883 62.400,217.264 62.220,217.400 62.000 C 217.536 61.780,217.377 61.600,217.047 61.600 C 216.717 61.600,216.336 61.780,216.200 62.000 M162.946 223.402 C 164.405 224.163,164.775 224.168,163.776 223.413 C 163.349 223.090,162.730 222.821,162.400 222.815 C 162.070 222.810,162.316 223.074,162.946 223.402 " stroke="none" fill="#1c94fc" fill-rule="evenodd"></path></g></svg>