<?xml version="1.0" encoding="UTF-8"?>
<!--
  - This file is part of HKBusETA.
  -
  - Copyright (C) 2024. LoohpJames <jamesloohp@gmail.com>
  - Copyright (C) 2024. Contributors
  -
  - This program is free software: you can redistribute it and/or modify
  - it under the terms of the GNU General Public License as published by
  - the Free Software Foundation, either version 3 of the License, or
  - (at your option) any later version.a
  -
  - This program is distributed in the hope that it will be useful,
  - but WITHOUT ANY WARRANTY; without even the implied warranty of
  - MERCHANTABILITY or FITNESS FOR A PARTICULAR PURPOSE.  See the
  - GNU General Public License for more details.
  -
  - You should have received a copy of the GNU General Public License
  - along with this program. If not, see <https://www.gnu.org/licenses/>.
  -
  -->

<svg xmlns="http://www.w3.org/2000/svg" xmlns:xlink="http://www.w3.org/1999/xlink" width="30pt" height="30pt" viewBox="0 0 30 30" version="1.1">
<g id="surface1">
<path style=" stroke:none;fill-rule:nonzero;fill:rgb(166,194,255);fill-opacity:1;" d="M 0 0 C 5.839844 0 11.679688 0 17.695312 0 C 17.695312 1.449219 17.695312 2.898438 17.695312 4.394531 C 18.273438 4.394531 18.855469 4.394531 19.453125 4.394531 C 19.453125 6.152344 19.453125 7.914062 19.453125 9.726562 C 18.292969 9.726562 17.132812 9.726562 15.9375 9.726562 C 15.9375 11.46875 15.9375 13.207031 15.9375 15 C 16.226562 15.039062 16.515625 15.078125 16.816406 15.117188 C 17.597656 15.292969 18.3125 15.605469 19.027344 15.957031 C 20.5625 16.703125 22.308594 16.96875 23.972656 16.445312 C 24.488281 16.261719 24.984375 16.011719 25.476562 15.769531 C 26.988281 15.039062 28.34375 14.980469 30 15 C 30 16.179688 30 17.359375 30 18.574219 C 29.722656 18.582031 29.445312 18.585938 29.15625 18.59375 C 28.46875 18.613281 27.796875 18.640625 27.128906 18.808594 C 27.089844 18.816406 27.050781 18.828125 27.011719 18.839844 C 26.289062 19.027344 25.621094 19.359375 24.953125 19.6875 C 23.417969 20.429688 21.605469 20.585938 19.972656 20.03125 C 19.597656 19.894531 19.238281 19.714844 18.875 19.542969 C 18.257812 19.253906 17.652344 18.980469 16.992188 18.808594 C 16.953125 18.796875 16.914062 18.789062 16.875 18.777344 C 15.6875 18.484375 14.191406 18.5 13.007812 18.808594 C 12.96875 18.820312 12.929688 18.828125 12.890625 18.839844 C 12.167969 19.03125 11.5 19.359375 10.832031 19.6875 C 9.296875 20.429688 7.484375 20.585938 5.851562 20.03125 C 5.476562 19.894531 5.117188 19.714844 4.753906 19.542969 C 3.140625 18.78125 1.78125 18.613281 0 18.574219 C 0 17.394531 0 16.214844 0 15 C 2.347656 14.960938 2.347656 14.960938 3.515625 15.351562 C 3.515625 13.496094 3.515625 11.640625 3.515625 9.726562 C 2.355469 9.726562 1.195312 9.726562 0 9.726562 C 0 7.96875 0 6.207031 0 4.394531 C 0.578125 4.394531 1.160156 4.394531 1.757812 4.394531 C 1.757812 3.542969 1.757812 2.691406 1.757812 1.816406 C 1.179688 1.816406 0.597656 1.816406 0 1.816406 C 0 1.21875 0 0.617188 0 0 Z M 3.574219 1.816406 C 3.574219 2.667969 3.574219 3.519531 3.574219 4.394531 C 4.136719 4.394531 4.695312 4.394531 5.273438 4.394531 C 5.273438 3.542969 5.273438 2.691406 5.273438 1.816406 C 4.710938 1.816406 4.152344 1.816406 3.574219 1.816406 Z M 7.089844 1.816406 C 7.089844 2.667969 7.089844 3.519531 7.089844 4.394531 C 7.652344 4.394531 8.210938 4.394531 8.789062 4.394531 C 8.789062 3.542969 8.789062 2.691406 8.789062 1.816406 C 8.226562 1.816406 7.667969 1.816406 7.089844 1.816406 Z M 10.605469 1.816406 C 10.605469 2.667969 10.605469 3.519531 10.605469 4.394531 C 11.167969 4.394531 11.726562 4.394531 12.304688 4.394531 C 12.304688 3.542969 12.304688 2.691406 12.304688 1.816406 C 11.742188 1.816406 11.183594 1.816406 10.605469 1.816406 Z M 14.121094 1.816406 C 14.121094 2.667969 14.121094 3.519531 14.121094 4.394531 C 14.703125 4.394531 15.28125 4.394531 15.878906 4.394531 C 15.878906 3.542969 15.878906 2.691406 15.878906 1.816406 C 15.300781 1.816406 14.71875 1.816406 14.121094 1.816406 Z M 7.089844 9.726562 C 7.089844 12.027344 7.089844 14.328125 7.089844 16.699219 C 8.886719 16.898438 10.246094 16.375 11.832031 15.609375 C 11.988281 15.539062 12.144531 15.472656 12.304688 15.410156 C 12.304688 13.535156 12.304688 11.660156 12.304688 9.726562 C 10.582031 9.726562 8.863281 9.726562 7.089844 9.726562 Z M 7.089844 9.726562 "/>
<path style=" stroke:none;fill-rule:nonzero;fill:rgb(0,28,94);fill-opacity:1;" d="M 0 23.789062 C 1.832031 23.789062 1.832031 23.789062 2.34375 23.90625 C 2.410156 23.921875 2.472656 23.933594 2.539062 23.949219 C 3.105469 24.105469 3.621094 24.355469 4.144531 24.605469 C 4.648438 24.847656 5.148438 25.082031 5.683594 25.238281 C 5.726562 25.25 5.769531 25.265625 5.8125 25.277344 C 6.503906 25.46875 7.210938 25.507812 7.925781 25.507812 C 7.964844 25.507812 8.003906 25.507812 8.046875 25.507812 C 8.679688 25.503906 9.289062 25.476562 9.902344 25.3125 C 9.949219 25.300781 9.992188 25.289062 10.039062 25.277344 C 10.78125 25.070312 11.449219 24.753906 12.132812 24.414062 C 13.648438 23.671875 15.503906 23.539062 17.109375 24.085938 C 17.507812 24.230469 17.886719 24.421875 18.265625 24.605469 C 18.769531 24.847656 19.269531 25.082031 19.804688 25.238281 C 19.867188 25.257812 19.867188 25.257812 19.933594 25.277344 C 20.625 25.46875 21.332031 25.507812 22.046875 25.507812 C 22.085938 25.507812 22.125 25.507812 22.167969 25.507812 C 22.800781 25.503906 23.410156 25.476562 24.023438 25.3125 C 24.070312 25.300781 24.113281 25.289062 24.160156 25.277344 C 24.902344 25.070312 25.570312 24.753906 26.253906 24.414062 C 27.507812 23.800781 28.566406 23.789062 30 23.789062 C 30 25.839844 30 27.886719 30 30 C 20.101562 30 10.199219 30 0 30 C 0 27.949219 0 25.902344 0 23.789062 Z M 0 23.789062 "/>
<path style=" stroke:none;fill-rule:nonzero;fill:rgb(55,142,206);fill-opacity:1;" d="M 0 20.273438 C 1.402344 20.246094 2.542969 20.292969 3.808594 20.917969 C 5.898438 21.933594 8.164062 22.367188 10.433594 21.632812 C 10.996094 21.4375 11.535156 21.179688 12.070312 20.921875 C 13.613281 20.179688 15.476562 19.976562 17.113281 20.550781 C 17.394531 20.65625 17.660156 20.785156 17.929688 20.917969 C 20.015625 21.933594 22.277344 22.367188 24.546875 21.636719 C 25.144531 21.429688 25.71875 21.148438 26.292969 20.871094 C 27.246094 20.417969 28.144531 20.253906 29.195312 20.265625 C 29.59375 20.269531 29.59375 20.269531 30 20.273438 C 30 20.871094 30 21.472656 30 22.089844 C 29.613281 22.097656 29.613281 22.097656 29.21875 22.109375 C 27.667969 22.160156 26.414062 22.496094 25.019531 23.1875 C 24.070312 23.652344 23.132812 23.871094 22.074219 23.867188 C 22.007812 23.867188 21.9375 23.867188 21.867188 23.863281 C 20.78125 23.851562 19.847656 23.558594 18.878906 23.085938 C 16.800781 22.082031 14.539062 21.796875 12.316406 22.546875 C 11.824219 22.726562 11.359375 22.957031 10.894531 23.1875 C 9.390625 23.921875 7.589844 24.128906 5.976562 23.613281 C 5.417969 23.410156 4.886719 23.15625 4.355469 22.898438 C 2.933594 22.214844 1.5625 22.125 0 22.089844 C 0 21.492188 0 20.890625 0 20.273438 Z M 0 20.273438 "/>
</g>
</svg>
